<svg width="44" height="44" viewBox="0 0 44 44" fill="none" xmlns="http://www.w3.org/2000/svg">
<circle cx="22" cy="22" r="22" fill="#1BA7BF"/>
<path d="M25.4946 27.9638C25.3742 27.9638 25.2538 27.9268 25.152 27.8524L21.9991 25.5615L18.8462 27.8524C18.6418 28.0008 18.3651 28.0008 18.1608 27.8524C17.9564 27.7039 17.8708 27.4408 17.9488 27.2007L19.153 23.494L16.0001 21.2034C15.7958 21.0549 15.7101 20.7917 15.7885 20.5517C15.8665 20.3117 16.0904 20.149 16.343 20.149H20.2405L21.4447 16.4423C21.5227 16.2022 21.7466 16.0396 21.9992 16.0396C22.2518 16.0396 22.4756 16.2022 22.5536 16.4423L23.7581 20.149H27.6556C27.9082 20.149 28.1321 20.3117 28.2101 20.5517C28.2881 20.7917 28.2028 21.0553 27.9982 21.2034L24.8452 23.494L26.0497 27.2007C26.1277 27.4408 26.0421 27.7043 25.8378 27.8524C25.7353 27.9268 25.6149 27.9638 25.4946 27.9638ZM18.1373 21.3144L20.1812 22.7996C20.3856 22.9481 20.4709 23.2113 20.3928 23.4513L19.6122 25.8544L21.6561 24.3692C21.8605 24.2207 22.1372 24.2207 22.3415 24.3692L24.3855 25.8544L23.6049 23.4513C23.5268 23.2113 23.6121 22.9477 23.8168 22.7996L25.8607 21.3144H23.334C23.0814 21.3144 22.8575 21.1517 22.7795 20.9117L21.9989 18.5086L21.2183 20.9117C21.1402 21.1517 20.9164 21.3144 20.6638 21.3144H18.1373Z" fill="white" stroke="white" stroke-width="0.390625"/>
<path d="M22.0001 35.9113C14.3307 35.9113 8.09082 29.6716 8.09082 22.002C8.09082 14.3327 14.3306 8.09277 22.0001 8.09277C29.6694 8.09277 35.9093 14.3325 35.9093 22.002C35.9093 29.6714 29.6696 35.9113 22.0001 35.9113ZM22.0001 9.25914C14.9734 9.25914 9.25719 14.9758 9.25719 22.002C9.25719 29.0287 14.9738 34.7449 22.0001 34.7449C29.0267 34.7449 34.743 29.0283 34.743 22.002C34.743 14.9757 29.0263 9.25914 22.0001 9.25914Z" fill="white" stroke="white" stroke-width="0.390625"/>
<path d="M31.7719 22.5843C31.4499 22.5843 31.189 22.3235 31.189 22.0014C31.189 16.9345 27.0667 12.8118 21.9994 12.8118C21.6774 12.8118 21.4165 12.5509 21.4165 12.2289C21.4165 11.9069 21.6774 11.646 21.9994 11.646C27.7095 11.646 32.3545 16.2914 32.3545 22.0011C32.3542 22.3225 32.0933 22.5837 31.7713 22.5837L31.7719 22.5843Z" fill="white" stroke="white" stroke-width="0.390625"/>
<path d="M21.9993 41.0007C21.4144 41.0007 20.8295 40.7954 20.3524 40.3844L19.2193 39.4087C18.8605 39.0999 18.359 38.9998 17.909 39.1475L16.4857 39.6151C15.2915 40.0075 14.0125 39.4782 13.4452 38.3563L12.7693 37.0199C12.5561 36.5984 12.1312 36.3144 11.6604 36.2787L10.1623 36.1646C8.91016 36.0694 7.93212 35.0913 7.83656 33.8389L7.72249 32.3411C7.68678 31.87 7.40244 31.4451 6.98121 31.2319L5.64344 30.5554C4.52261 29.9887 3.99291 28.7108 4.38405 27.5169L4.85156 26.0905C4.99869 25.6419 4.89884 25.1409 4.59135 24.7825L3.61399 23.6445C2.79501 22.691 2.79534 21.3073 3.61498 20.3541L4.59099 19.219C4.89914 18.8609 4.99899 18.3594 4.85186 17.9104L4.38468 16.4846C3.99353 15.291 4.52321 14.0128 5.64407 13.4458L6.98184 12.7693C7.4034 12.5561 7.68741 12.1312 7.72312 11.6604L7.83719 10.1626C7.93241 8.9105 8.91045 7.93212 10.1629 7.8369L11.6606 7.72283C12.1315 7.68712 12.5563 7.40278 12.7696 6.98155L13.4461 5.64378C14.0131 4.52294 15.2911 3.99291 16.4846 4.38438L17.9103 4.85157C18.3593 4.9987 18.8606 4.89885 19.219 4.5907L20.354 3.61469C21.3073 2.79538 22.6909 2.79505 23.6445 3.61403L24.7825 4.59139C25.1406 4.89921 25.6421 4.99873 26.0905 4.8516L27.5169 4.38409C28.7111 3.99295 29.9887 4.52262 30.5554 5.64348L31.2318 6.98125C31.4451 7.40248 31.87 7.68682 32.3408 7.72253L33.8386 7.8366C35.0907 7.93182 36.0691 8.90987 36.1643 10.1623L36.2783 11.6601C36.3141 12.1309 36.5984 12.5557 37.0196 12.769L38.356 13.4449C39.4779 14.0122 40.0072 15.2911 39.6148 16.4854L39.1472 17.9087C38.9995 18.3584 39.0993 18.8603 39.4081 19.2187L40.3838 20.3518C41.2051 21.3058 41.2054 22.6904 40.3848 23.6449L39.4078 24.781C39.0993 25.1394 38.9994 25.6413 39.1472 26.0907L39.6151 27.515C40.0075 28.7092 39.4782 29.9882 38.3563 30.5555L37.0199 31.2314C36.5984 31.4446 36.3144 31.8695 36.2786 32.3403L36.1646 33.8384C36.0694 35.0905 35.0913 36.0689 33.8389 36.1641L32.3411 36.2782C31.8703 36.3139 31.4454 36.5983 31.2321 37.0195L30.5563 38.3559C29.9889 39.4778 28.7101 40.0075 27.5158 39.6146L26.0918 39.1468C25.6421 38.999 25.1406 39.0992 24.7821 39.4073L23.6457 40.3843C23.1679 40.796 22.5834 41.001 21.9992 41.001L21.9993 41.0007ZM18.3272 37.9156C18.9254 37.9156 19.5169 38.1269 19.9797 38.5256L21.1128 39.5013C21.626 39.943 22.3712 39.9433 22.8847 39.5019L24.0208 38.5249C24.687 37.9519 25.6198 37.7661 26.4546 38.0405L27.8789 38.5084C28.522 38.72 29.2098 38.435 29.5149 37.8312L30.1907 36.4948C30.5872 35.7115 31.3767 35.1839 32.2519 35.1171L33.7497 35.003C34.4235 34.9518 34.9499 34.4254 35.0011 33.7516L35.1152 32.2538C35.1816 31.379 35.7097 30.5891 36.4926 30.1926L37.8293 29.5168C38.4331 29.2116 38.7177 28.5236 38.5065 27.8809L38.0386 26.4565C37.7642 25.6216 37.95 24.6889 38.523 24.0227L39.5 22.8866C39.9418 22.3731 39.9414 21.6279 39.4997 21.1147L38.524 19.9816C37.9501 19.3151 37.7642 18.382 38.039 17.5465L38.5065 16.1231C38.7178 15.4804 38.4328 14.7923 37.8294 14.4871L36.4929 13.8113C35.7097 13.4152 35.182 12.6253 35.1152 11.7501L35.0012 10.2524C34.9499 9.57855 34.4235 9.05215 33.7497 9.00094L32.2516 8.88687C31.3764 8.82008 30.5869 8.29239 30.1904 7.50915L29.5139 6.17138C29.2088 5.5683 28.5211 5.28331 27.879 5.49391L26.4526 5.96142C25.6191 6.23453 24.6874 6.04937 24.0214 5.47737L22.8834 4.50001C22.3706 4.05927 21.6257 4.05927 21.1132 4.50034L19.9782 5.47601C19.3126 6.04833 18.3805 6.23415 17.5464 5.96072L16.1207 5.49354C15.4779 5.28292 14.7905 5.56826 14.4857 6.17134L13.8092 7.50911C13.4131 8.29238 12.6232 8.82004 11.748 8.88683L10.2503 9.0009C9.57646 9.05215 9.05006 9.57852 8.99885 10.2523L8.88478 11.7501C8.81799 12.6253 8.2903 13.4152 7.50706 13.8113L6.16962 14.4878C5.56622 14.7929 5.28122 15.4806 5.49183 16.1227L5.95901 17.5484C6.23245 18.383 6.04663 19.3147 5.4743 19.9805L4.49829 21.1156C4.05723 21.6284 4.05723 22.373 4.49763 22.8861L5.47499 24.0242C6.04666 24.6897 6.23214 25.6214 5.95904 26.4553L5.49153 27.8817C5.28091 28.5241 5.56592 29.2119 6.169 29.5167L7.50736 30.1922C8.29063 30.5883 8.8183 31.3782 8.88508 32.2534L8.99916 33.7511C9.0504 34.4249 9.57677 34.9513 10.2506 35.0025L11.7483 35.1166C12.6235 35.1831 13.4131 35.7111 13.8095 36.4943L14.4854 37.8308C14.7905 38.4345 15.4786 38.7195 16.1213 38.5079L17.5447 38.0404C17.7999 37.9561 18.0644 37.9154 18.3273 37.9154L18.3272 37.9156Z" fill="white" stroke="white" stroke-width="0.390625"/>
</svg>
