<svg width="49" height="44" viewBox="0 0 49 44" fill="none" xmlns="http://www.w3.org/2000/svg">
<path d="M18.4295 21.5662L30.9885 10.3772C31.198 10.1906 31.198 9.89221 30.9885 9.66856C30.7791 9.44491 30.4441 9.48196 30.1931 9.66856L17.2572 21.1933C17.0477 21.3799 17.0477 21.6783 17.2572 21.902L30.0678 33.315C30.1933 33.4269 30.3188 33.4642 30.4447 33.4642C30.5702 33.4642 30.7377 33.4269 30.8216 33.315C31.0311 33.1284 31.0311 32.83 30.8216 32.6064L18.4295 21.5662Z" fill="#878787"/>
<path d="M18.4295 21.5662L30.9885 10.3772C31.198 10.1906 31.198 9.89221 30.9885 9.66856C30.7791 9.44491 30.4441 9.48196 30.1931 9.66856L17.2572 21.1933C17.0477 21.3799 17.0477 21.6783 17.2572 21.902L30.0678 33.315C30.1933 33.4269 30.3188 33.4642 30.4447 33.4642C30.5702 33.4642 30.7377 33.4269 30.8216 33.315C31.0311 33.1284 31.0311 32.83 30.8216 32.6064L18.4295 21.5662Z" fill="#878787" stroke="#878787" stroke-width="0.390625"/>
<circle cx="26.3152" cy="21.93" r="20.43" stroke="#878787" stroke-width="3"/>
</svg>
