<svg width="49" height="44" viewBox="0 0 49 44" fill="none" xmlns="http://www.w3.org/2000/svg">
<path d="M29.8166 22.2937L17.2576 33.4826C17.0481 33.6692 17.0481 33.9677 17.2576 34.1913C17.467 34.415 17.8019 34.3779 18.053 34.1913L30.9889 22.6666C31.1984 22.48 31.1984 22.1816 30.9889 21.9579L18.1783 10.5448C18.0528 10.433 17.9273 10.3956 17.8014 10.3956C17.6759 10.3956 17.5084 10.433 17.4245 10.5448C17.215 10.7314 17.215 11.0298 17.4245 11.2535L29.8166 22.2937Z" fill="#878787"/>
<path d="M29.8166 22.2937L17.2576 33.4826C17.0481 33.6692 17.0481 33.9677 17.2576 34.1913C17.467 34.415 17.8019 34.3779 18.053 34.1913L30.9889 22.6666C31.1984 22.48 31.1984 22.1816 30.9889 21.9579L18.1783 10.5448C18.0528 10.433 17.9273 10.3956 17.8014 10.3956C17.6759 10.3956 17.5084 10.433 17.4245 10.5448C17.215 10.7314 17.215 11.0298 17.4245 11.2535L29.8166 22.2937Z" fill="#878787" stroke="#878787" stroke-width="0.390625"/>
<circle cx="21.9309" cy="21.9299" r="20.43" transform="rotate(-180 21.9309 21.9299)" stroke="#878787" stroke-width="3"/>
</svg>
