<svg id="svg" fill="#000000" stroke="#000000" width="200px" height="200px" version="1.1" viewBox="144 144 512 512" xmlns="http://www.w3.org/2000/svg">
    <g id="IconSvg_bgCarrier" stroke-width="0"></g>
    <g id="IconSvg_tracerCarrier" stroke-linecap="round" stroke-linejoin="round" stroke="#CCCCCC"></g>
     <g id="IconSvg_iconCarrier">
      <g xmlns="http://www.w3.org/2000/svg">
  <path d="m492.3 307.7c-2.4297-2.418-6.3555-2.418-8.7852 0l-83.512 83.516-83.512-83.516c-2.4375-2.375-6.332-2.3477-8.7383 0.058594-2.4023 2.4102-2.4258 6.3047-0.050781 8.7383l83.512 83.508-83.512 83.512c-2.4258 2.4258-2.4258 6.3594 0 8.7852s6.3633 2.4258 8.7891 0l83.512-83.512 83.512 83.512c2.4258 2.4258 6.3594 2.4258 8.7852 0s2.4258-6.3594 0-8.7852l-83.512-83.512 83.512-83.508c2.4258-2.4297 2.4258-6.3672 0-8.7969z"></path>
  <path d="m400 160.69c-63.469 0-124.34 25.215-169.22 70.094s-70.094 105.75-70.094 169.22 25.215 124.34 70.094 169.21 105.75 70.094 169.22 70.094 124.34-25.215 169.21-70.094 70.094-105.75 70.094-169.21c-0.070313-63.449-25.309-124.28-70.172-169.14s-105.69-70.102-169.14-70.172zm0 466.19c-60.176 0-117.88-23.902-160.43-66.453-42.551-42.547-66.453-100.25-66.453-160.43 0-60.176 23.902-117.88 66.453-160.43 42.547-42.551 100.25-66.453 160.43-66.453 60.172 0 117.88 23.902 160.43 66.453 42.551 42.547 66.453 100.25 66.453 160.43-0.066406 60.148-23.992 117.82-66.527 160.35-42.531 42.535-100.2 66.461-160.35 66.527z"></path>
 </g>

      </g>
      </svg>