<svg width="33" height="33" viewBox="0 0 33 33" fill="none" xmlns="http://www.w3.org/2000/svg">
<path fill-rule="evenodd" clip-rule="evenodd" d="M16.8385 9.56278C3.3207 11.5467 2.63363 27.2829 2.63363 27.2829C2.62205 27.5714 2.73434 27.8516 2.94179 28.0525C3.1495 28.2534 3.43299 28.3564 3.72129 28.3352C4.00957 28.3144 4.27518 28.1713 4.45141 27.9422C6.32784 25.5811 8.42282 23.4023 10.7086 21.435C12.617 19.8277 14.7599 18.3572 16.8387 17.7693V21.2354C16.8387 21.4824 16.9286 21.7205 17.0918 21.9058C17.2549 22.0911 17.48 22.2105 17.7247 22.2417C17.9694 22.2731 18.2174 22.214 18.4216 22.0755L29.9219 14.296C30.2011 14.1072 30.3683 13.7925 30.3683 13.4553C30.3683 13.1185 30.2011 12.8035 29.9219 12.6149L18.4216 4.83545C18.2171 4.69749 17.9694 4.63857 17.7247 4.66979C17.4797 4.70126 17.2549 4.82086 17.0918 5.00616C16.9289 5.19121 16.8387 5.42963 16.8387 5.67634L16.8385 9.56278ZM17.9508 11.4717C18.2015 11.4473 18.4347 11.3304 18.6041 11.1439C18.7738 10.9571 18.8677 10.7139 18.868 10.4618V7.58736L27.5421 13.4556L18.868 19.3234V16.5318C18.868 16.242 18.7441 15.9661 18.5276 15.7734C18.3111 15.5808 18.0226 15.4899 17.7348 15.5237C14.9733 15.8477 11.9768 17.7128 9.40099 19.8828H9.40124C7.90122 21.1616 6.48396 22.5345 5.15842 23.9932C6.15467 19.5872 9.13111 12.3233 17.9511 11.4719L17.9508 11.4717Z" fill="#DADADA" stroke="#DADADA" stroke-width="0.390625"/>
</svg>
