<svg id="svg" fill="#000000" stroke="#000000" width="201" height="201" version="1.1" viewBox="144 144 512 512" xmlns="http://www.w3.org/2000/svg" stroke-width="0">
    <g id="IconSvg_bgCarrier" stroke-width="0"></g>
    <g id="IconSvg_tracerCarrier" stroke-linecap="round" stroke-linejoin="round" stroke="#CCCCCC" stroke-width="0">
      <path xmlns="http://www.w3.org/2000/svg" d="m400 193.43c118.54 0 216.64 78.664 216.64 178.38 0 55.059-32.109 100.18-78.406 132.09l37.312 88.641v-0.003906c1.6875 3.9648 0.67188 8.5586-2.5312 11.438-3.1992 2.8789-7.875 3.4102-11.637 1.3164l-108.16-59.039c-16.172 2.6523-37.672 4.0938-53.215 4.0938-118.54 0-216.64-78.824-216.64-178.54s98.094-178.38 216.64-178.38zm0 20.152c-109.67 0-196.48 71.863-196.48 158.23s86.816 158.39 196.48 158.39c15.523 0 39.781-1.4922 53.531-4.0938h-0.003906c2.3008-0.48438 4.6953-0.15234 6.7695 0.94531l85.488 46.602-29.125-69.117c-1.8203-4.5078-0.16406-9.6719 3.9375-12.281 46.395-29.586 75.887-70.531 75.887-120.44 0-86.363-86.816-158.23-196.48-158.23zm115.88 120.91c19.359 0 35.266 15.91 35.266 35.266 0 19.359-15.91 35.266-35.266 35.266-19.359 0-35.266-15.91-35.266-35.266 0-19.359 15.91-35.266 35.266-35.266zm-115.88 0c19.359 0 35.266 15.91 35.266 35.266 0 19.359-15.91 35.266-35.266 35.266-19.359 0-35.266-15.91-35.266-35.266 0-19.359 15.91-35.266 35.266-35.266zm-115.88 0c19.359 0 35.266 15.91 35.266 35.266 0 19.359-15.91 35.266-35.266 35.266-19.359 0-35.266-15.91-35.266-35.266 0-19.359 15.91-35.266 35.266-35.266zm231.75 20.152c-8.4648 0-15.113 6.6484-15.113 15.113s6.6484 15.113 15.113 15.113 15.113-6.6484 15.113-15.113-6.6484-15.113-15.113-15.113zm-115.88 0c-8.4648 0-15.113 6.6484-15.113 15.113s6.6484 15.113 15.113 15.113 15.113-6.6484 15.113-15.113-6.6484-15.113-15.113-15.113zm-115.88 0c-8.4648 0-15.113 6.6484-15.113 15.113s6.6484 15.113 15.113 15.113 15.113-6.6484 15.113-15.113-6.6484-15.113-15.113-15.113z"></path>

      </g>
     <g id="IconSvg_iconCarrier">
      <path xmlns="http://www.w3.org/2000/svg" d="m400 193.43c118.54 0 216.64 78.664 216.64 178.38 0 55.059-32.109 100.18-78.406 132.09l37.312 88.641v-0.003906c1.6875 3.9648 0.67188 8.5586-2.5312 11.438-3.1992 2.8789-7.875 3.4102-11.637 1.3164l-108.16-59.039c-16.172 2.6523-37.672 4.0938-53.215 4.0938-118.54 0-216.64-78.824-216.64-178.54s98.094-178.38 216.64-178.38zm0 20.152c-109.67 0-196.48 71.863-196.48 158.23s86.816 158.39 196.48 158.39c15.523 0 39.781-1.4922 53.531-4.0938h-0.003906c2.3008-0.48438 4.6953-0.15234 6.7695 0.94531l85.488 46.602-29.125-69.117c-1.8203-4.5078-0.16406-9.6719 3.9375-12.281 46.395-29.586 75.887-70.531 75.887-120.44 0-86.363-86.816-158.23-196.48-158.23zm115.88 120.91c19.359 0 35.266 15.91 35.266 35.266 0 19.359-15.91 35.266-35.266 35.266-19.359 0-35.266-15.91-35.266-35.266 0-19.359 15.91-35.266 35.266-35.266zm-115.88 0c19.359 0 35.266 15.91 35.266 35.266 0 19.359-15.91 35.266-35.266 35.266-19.359 0-35.266-15.91-35.266-35.266 0-19.359 15.91-35.266 35.266-35.266zm-115.88 0c19.359 0 35.266 15.91 35.266 35.266 0 19.359-15.91 35.266-35.266 35.266-19.359 0-35.266-15.91-35.266-35.266 0-19.359 15.91-35.266 35.266-35.266zm231.75 20.152c-8.4648 0-15.113 6.6484-15.113 15.113s6.6484 15.113 15.113 15.113 15.113-6.6484 15.113-15.113-6.6484-15.113-15.113-15.113zm-115.88 0c-8.4648 0-15.113 6.6484-15.113 15.113s6.6484 15.113 15.113 15.113 15.113-6.6484 15.113-15.113-6.6484-15.113-15.113-15.113zm-115.88 0c-8.4648 0-15.113 6.6484-15.113 15.113s6.6484 15.113 15.113 15.113 15.113-6.6484 15.113-15.113-6.6484-15.113-15.113-15.113z"></path>

      </g>
      </svg>