<svg id="svg" fill="#878787" stroke="#878787" width="200" height="200" version="1.1" viewBox="144 144 512 512" xmlns="http://www.w3.org/2000/svg">
    <g id="IconSvg_bgCarrier" stroke-width="0"></g>
    <g id="IconSvg_tracerCarrier" stroke-linecap="round" stroke-linejoin="round" stroke="#CCCCCC" stroke-width="0">
      <path xmlns="http://www.w3.org/2000/svg" d="m339.58 400.89 133.28-133.28c2.2227-2.2227 2.2227-5.7773 0-8.4414-2.2227-2.6641-5.7773-2.2227-8.4414 0l-137.28 137.28c-2.2227 2.2227-2.2227 5.7773 0 8.4414l135.95 135.95c1.332 1.332 2.6641 1.7773 4 1.7773 1.332 0 3.1094-0.44531 4-1.7773 2.2227-2.2227 2.2227-5.7773 0-8.4414z"></path>

      </g>
     <g id="IconSvg_iconCarrier">
      <path xmlns="http://www.w3.org/2000/svg" d="m339.58 400.89 133.28-133.28c2.2227-2.2227 2.2227-5.7773 0-8.4414-2.2227-2.6641-5.7773-2.2227-8.4414 0l-137.28 137.28c-2.2227 2.2227-2.2227 5.7773 0 8.4414l135.95 135.95c1.332 1.332 2.6641 1.7773 4 1.7773 1.332 0 3.1094-0.44531 4-1.7773 2.2227-2.2227 2.2227-5.7773 0-8.4414z"></path>

      </g>
      </svg>