<svg id="svg" fill="#1BA7BF" stroke="#1BA7BF" width="200" height="200" version="1.1" viewBox="144 144 512 512" xmlns="http://www.w3.org/2000/svg">
    <g id="IconSvg_bgCarrier" stroke-width="0"></g>
    <g id="IconSvg_tracerCarrier" stroke-linecap="round" stroke-linejoin="round" stroke="#CCCCCC" stroke-width="0">
      <path xmlns="http://www.w3.org/2000/svg" d="m400 199.76c-53.09 0.0625-103.99 21.176-141.53 58.715-37.539 37.539-58.656 88.438-58.719 141.53 11.004 265.65 389.53 265.57 400.49 0l0.003906-0.003906c-0.0625-53.09-21.18-103.98-58.719-141.52-37.543-37.539-88.438-58.656-141.53-58.715zm82.492 210.74h-71.996v72.008-0.003906c0 5.7969-4.6992 10.496-10.496 10.496s-10.496-4.6992-10.496-10.496v-72.004h-72.008c-5.7969 0-10.496-4.6992-10.496-10.496s4.6992-10.496 10.496-10.496h72.008v-72.004c0-5.7969 4.6992-10.496 10.496-10.496s10.496 4.6992 10.496 10.496v72.004h71.996c5.7148 0.10938 10.293 4.7773 10.293 10.496 0 5.7148-4.5781 10.383-10.293 10.496z"></path>

      </g>
     <g id="IconSvg_iconCarrier">
      <path xmlns="http://www.w3.org/2000/svg" d="m400 199.76c-53.09 0.0625-103.99 21.176-141.53 58.715-37.539 37.539-58.656 88.438-58.719 141.53 11.004 265.65 389.53 265.57 400.49 0l0.003906-0.003906c-0.0625-53.09-21.18-103.98-58.719-141.52-37.543-37.539-88.438-58.656-141.53-58.715zm82.492 210.74h-71.996v72.008-0.003906c0 5.7969-4.6992 10.496-10.496 10.496s-10.496-4.6992-10.496-10.496v-72.004h-72.008c-5.7969 0-10.496-4.6992-10.496-10.496s4.6992-10.496 10.496-10.496h72.008v-72.004c0-5.7969 4.6992-10.496 10.496-10.496s10.496 4.6992 10.496 10.496v72.004h71.996c5.7148 0.10938 10.293 4.7773 10.293 10.496 0 5.7148-4.5781 10.383-10.293 10.496z"></path>

      </g>
      </svg>