<svg id="svg" fill="#1BA7BF" stroke="#1BA7BF" width="200" height="200" version="1.1" viewBox="144 144 512 512" xmlns="http://www.w3.org/2000/svg">
    <g id="IconSvg_bgCarrier" stroke-width="0"></g>
    <g id="IconSvg_tracerCarrier" stroke-linecap="round" stroke-linejoin="round" stroke="#CCCCCC" stroke-width="0">
      <g xmlns="http://www.w3.org/2000/svg">
  <path d="m400 179.58c-121.55 0-220.42 98.871-220.42 220.42 0 121.54 98.871 220.41 220.42 220.41 121.54 0 220.41-98.871 220.41-220.41 0-121.55-98.871-220.42-220.41-220.42zm0 419.84c-109.96 0-199.43-89.469-199.43-199.43 0-109.95 89.469-199.42 199.43-199.42s199.43 89.469 199.43 199.43c-0.003906 109.95-89.473 199.42-199.43 199.42z"></path>
  <path d="m483.96 389.5h-73.473l0.003906-73.473c0-5.793-4.7031-10.496-10.496-10.496-5.7969 0-10.496 4.7031-10.496 10.496v73.473h-73.473c-5.793 0-10.496 4.7031-10.496 10.496s4.7031 10.496 10.496 10.496h73.473v73.469c0 5.793 4.7031 10.496 10.496 10.496s10.496-4.7031 10.496-10.496v-73.473l73.469 0.003906c5.793 0 10.496-4.7031 10.496-10.496 0-5.7969-4.6992-10.496-10.496-10.496z"></path>
 </g>

      </g>
     <g id="IconSvg_iconCarrier">
      <g xmlns="http://www.w3.org/2000/svg">
  <path d="m400 179.58c-121.55 0-220.42 98.871-220.42 220.42 0 121.54 98.871 220.41 220.42 220.41 121.54 0 220.41-98.871 220.41-220.41 0-121.55-98.871-220.42-220.41-220.42zm0 419.84c-109.96 0-199.43-89.469-199.43-199.43 0-109.95 89.469-199.42 199.43-199.42s199.43 89.469 199.43 199.43c-0.003906 109.95-89.473 199.42-199.43 199.42z"></path>
  <path d="m483.96 389.5h-73.473l0.003906-73.473c0-5.793-4.7031-10.496-10.496-10.496-5.7969 0-10.496 4.7031-10.496 10.496v73.473h-73.473c-5.793 0-10.496 4.7031-10.496 10.496s4.7031 10.496 10.496 10.496h73.473v73.469c0 5.793 4.7031 10.496 10.496 10.496s10.496-4.7031 10.496-10.496v-73.473l73.469 0.003906c5.793 0 10.496-4.7031 10.496-10.496 0-5.7969-4.6992-10.496-10.496-10.496z"></path>
 </g>

      </g>
      </svg>